# xmcd
#
# Track frame offsets: 
#        150
#        15928
#        28050
#        50060
#        68798
#        83284
#        102097
#        119395
#        137892
#        154478
#        169095
#        187166
#        200901
#
# Disc length: 2878 seconds
#
# Revision: 0
# Processed by: cddbd v1.5.2PL0 Copyright (c) Steve Scherf et al.
# Submitted via: ExactAudioCopy v1.0b1
#
DISCID=b30b3c0d
DTITLE=Maisteri T. ja Lihan Tie - Turpa Kii ja Tanssi
DYEAR=2011
DGENRE=Blues
TTITLE0=Anivarhain Aamuisin
TTITLE1=Häijy Mamma
TTITLE2=Sä Oot Out
TTITLE3=Miehet Niin Kuin Mä
TTITLE4=Turpa Kii ja Tanssi
TTITLE5=Nti Dynamiitti
TTITLE6=Mä Toivon Vaan
TTITLE7=Kun Rahat Menneet On
TTITLE8=Automaattinainen
TTITLE9=Hammasharjan Pakkaan
TTITLE10=Oonksmä Mies?
TTITLE11=Pois Hän Lähti
TTITLE12=Taikavarpu
EXTD=
EXTT0=
EXTT1=
EXTT2=
EXTT3=
EXTT4=
EXTT5=
EXTT6=
EXTT7=
EXTT8=
EXTT9=
EXTT10=
EXTT11=
EXTT12=
PLAYORDER=
